<mxfile host="app.diagrams.net" modified="2024-04-30T12:11:02.522Z" agent="Mozilla/5.0 (Windows NT 10.0; Win64; x64) AppleWebKit/537.36 (KHTML, like Gecko) Chrome/124.0.0.0 Safari/537.36" version="24.3.1" etag="HSGQGwUqiyVhpIzbMhYf" type="github">
  <diagram name="Page-1" id="wbAbeA8P8Sl5RczZFwEn">
    <mxGraphModel>
      <root>
        <mxCell id="0" />
        <mxCell id="1" parent="0" />
      </root>
    </mxGraphModel>
  </diagram>
</mxfile>
